<svg width="1200" height="620" viewBox="0 0 1200 620" xmlns="http://www.w3.org/2000/svg" role="img" aria-label="Feature space clusters and separating boundary">
  <rect width="1200" height="620" fill="#0b0f15"/>
  <g stroke="#1f2a3a" stroke-width="1" opacity="0.65">
    <path d="M80 540H1120"/>
    <path d="M80 80V540"/>
    <path d="M160 80V540"/>
    <path d="M240 80V540"/>
    <path d="M320 80V540"/>
    <path d="M400 80V540"/>
    <path d="M480 80V540"/>
    <path d="M560 80V540"/>
    <path d="M640 80V540"/>
    <path d="M720 80V540"/>
    <path d="M800 80V540"/>
    <path d="M880 80V540"/>
    <path d="M960 80V540"/>
    <path d="M1040 80V540"/>
    <path d="M1120 80V540"/>
    <path d="M80 460H1120"/>
    <path d="M80 380H1120"/>
    <path d="M80 300H1120"/>
    <path d="M80 220H1120"/>
    <path d="M80 140H1120"/>
  </g>

  <g fill="#7dd3fc" opacity="0.85">
    <circle cx="240" cy="420" r="9"/>
    <circle cx="280" cy="390" r="8"/>
    <circle cx="310" cy="440" r="7"/>
    <circle cx="350" cy="410" r="8"/>
    <circle cx="390" cy="370" r="7"/>
    <circle cx="330" cy="350" r="8"/>
  </g>

  <g fill="#dbeafe" opacity="0.7">
    <circle cx="760" cy="250" r="9"/>
    <circle cx="810" cy="290" r="8"/>
    <circle cx="860" cy="240" r="7"/>
    <circle cx="900" cy="300" r="8"/>
    <circle cx="940" cy="270" r="7"/>
    <circle cx="980" cy="230" r="8"/>
  </g>

  <path d="M140 500 C 380 420, 640 290, 1060 170" fill="none" stroke="#7dd3fc" stroke-width="4" stroke-dasharray="10 8" opacity="0.9"/>

  <text x="88" y="66" fill="#9ea9bc" font-family="monospace" font-size="20">Feature space projection</text>
  <text x="880" y="108" fill="#9ea9bc" font-family="monospace" font-size="18">decision boundary</text>
</svg>
